<svg width="124" height="42" viewBox="0 0 124 42" fill="none" xmlns="http://www.w3.org/2000/svg">
<rect x="0.0439453" y="0.795288" width="125.28" height="40.9795" rx="4.99174" fill="#F6F6F6"/>
<path fill-rule="evenodd" clip-rule="evenodd" d="M19.1468 20.6996H14.4712C13.8259 20.6996 13.3022 21.2233 13.3022 21.8685C13.3022 22.5137 13.8259 23.0374 14.4712 23.0374H19.1468C19.792 23.0374 20.3157 22.5137 20.3157 21.8685C20.3157 21.2233 19.792 20.6996 19.1468 20.6996Z" fill="#222222"/>
<path d="M57.3098 24.6746H56.2218V17.4619L54.0399 18.2633V17.2805L57.1402 16.1165H57.3098V24.6746Z" fill="#222222"/>
<path fill-rule="evenodd" clip-rule="evenodd" d="M110.322 20.6956H109.153V19.5267C109.153 18.8815 108.63 18.3578 107.984 18.3578C107.339 18.3578 106.815 18.8815 106.815 19.5267V20.6956H105.646C105.001 20.6956 104.478 21.2193 104.478 21.8645C104.478 22.5098 105.001 23.0334 105.646 23.0334H106.815V24.2023C106.815 24.8476 107.339 25.3712 107.984 25.3712C108.63 25.3712 109.153 24.8476 109.153 24.2023V23.0334H110.322C110.967 23.0334 111.491 22.5098 111.491 21.8645C111.491 21.2193 110.967 20.6956 110.322 20.6956Z" fill="#222222"/>
</svg>
